PathFileType	4	(X/Y/Z)	C:\Users\Basilio\Documents\Thesis Gigler\squatting_fais\c3dfiles\036\SJ_pre3\markers_experimental.trc
DataRate	CameraRate	NumFrames	NumMarkers	Units	OrigDataRate	OrigDataStartFrame	OrigNumFrames
200.000000	200.000000	4	61	mm	200.000000	1311	2099
Frame#	Time	FHD			LBHD			RBHD			C7			T10			CLAV			LSHO			LUUPA			LMUPA			LDUPA			LLEP			LMEP			LRAD			LUL			LRFIN			RSHO			RUPA1			RMUPA			RDUPA			RLEP			RMEP			RRAD			RUL			RUFIN			LASI			RASI			USACR			LSACR			RSACR			LTHI1			LTHI2			LTHI3			LTHI4			LLFC			LMFC			LTIB1			LTIB2			LTIB3			LTIB4			LLMAL			LMMAL			LHEE			LMT1			LMT2			LMT5			RTHI			RTHI2			RTHI3			RTHI4			RLFC			RMFC			RTIB1			RTIB2			RTIB3			RTIB4			RLMAL			RMMAL			RHEE			RMT1			RMT2			RMT5			
		X1	Y1	Z1	X2	Y2	Z2	X3	Y3	Z3	X4	Y4	Z4	X5	Y5	Z5	X6	Y6	Z6	X7	Y7	Z7	X8	Y8	Z8	X9	Y9	Z9	X10	Y10	Z10	X11	Y11	Z11	X12	Y12	Z12	X13	Y13	Z13	X14	Y14	Z14	X15	Y15	Z15	X16	Y16	Z16	X17	Y17	Z17	X18	Y18	Z18	X19	Y19	Z19	X20	Y20	Z20	X21	Y21	Z21	X22	Y22	Z22	X23	Y23	Z23	X24	Y24	Z24	X25	Y25	Z25	X26	Y26	Z26	X27	Y27	Z27	X28	Y28	Z28	X29	Y29	Z29	X30	Y30	Z30	X31	Y31	Z31	X32	Y32	Z32	X33	Y33	Z33	X34	Y34	Z34	X35	Y35	Z35	X36	Y36	Z36	X37	Y37	Z37	X38	Y38	Z38	X39	Y39	Z39	X40	Y40	Z40	X41	Y41	Z41	X42	Y42	Z42	X43	Y43	Z43	X44	Y44	Z44	X45	Y45	Z45	X46	Y46	Z46	X47	Y47	Z47	X48	Y48	Z48	X49	Y49	Z49	X50	Y50	Z50	X51	Y51	Z51	X52	Y52	Z52	X53	Y53	Z53	X54	Y54	Z54	X55	Y55	Z55	X56	Y56	Z56	X57	Y57	Z57	X58	Y58	Z58	X59	Y59	Z59	X60	Y60	Z60	X61	Y61	Z61	

1312	6.555	-127.213363647461	1480.337890625	-971.835144042969	-273.8388061523438	1381.45458984375	-1028.914306640625	-224.7397155761719	1410.576782226563	-887.8870239257815	-288.5288696289063	1294.461547851563	-985.1980590820315	-315.0989074707032	987.0830078125002	-961.3304443359377	-133.4227142333985	1229.26025390625	-969.011413574219	-180.1951904296875	1274.464721679688	-1113.46044921875	-232.1670379638672	1148.43017578125	-1243.0078125	-200.399642944336	1109.596313476563	-1240.88134765625	-243.9481964111329	1089.185302734375	-1278.33935546875	-247.540267944336	1030.164184570313	-1291.353271484375	-309.1142578125001	1026.255004882813	-1263.535034179688	-154.8427124023438	830.6022949218752	-1203.867431640625	-201.168930053711	849.9281005859377	-1153.332763671875	-173.7628631591797	798.3282470703127	-1116.871704101563	-188.703109741211	1282.348388671875	-826.5708618164065	-229.9811553955079	1179.780029296875	-698.9306030273439	-190.2464141845703	1149.3798828125	-695.7604370117189	-225.4394989013672	1125.522827148438	-654.2064208984376	-219.0550689697266	1055.97802734375	-625.6864013671876	-284.7555541992188	1031.528930664063	-655.9847412109376	-189.8358306884766	857.7307128906252	-737.8246459960939	-139.3958892822266	842.8853759765627	-696.8727416992189	-164.3294372558594	822.2390747070315	-782.643493652344	-153.5920104980469	782.2513427734377	-1076.624755859375	-161.55908203125	802.8604736328127	-812.5797119140627	-335.7980041503907	905.7114257812502	-958.511169433594	-358.2451171875001	879.2727050781252	-982.7370605468752	-354.8040771484376	885.0667724609377	-927.0012817382815	-220.9532470703126	669.7501831054689	-1161.357788085938	-163.447982788086	609.5590820312501	-1161.8310546875	-123.878776550293	629.1020507812501	-1144.225708007813	-169.6839752197266	551.3922119140626	-1162.059448242188	-146.4701232910157	406.4107055664064	-1154.101684570313	-113.9161911010742	365.8156433105469	-1009.549926757813	-142.3993377685547	226.4720916748047	-1092.522094726563	-185.4349670410157	207.1793823242188	-1166.919311523438	-167.979248046875	190.5162048339844	-1128.399291992188	-215.6256256103516	123.6982421875	-1102.599853515625	-303.9825744628907	85.19444274902345	-1164.044311523438	-286.1975097656251	80.23203277587892	-1078.093627929688	-366.4327087402344	60.96454238891603	-1127.281860351563	-175.6588897705078	49.44223785400392	-1102.561279296875	-164.7547760009766	50.97806930541994	-1150.610107421875	-207.3996124267579	35.03893280029298	-1200.639404296875	-250.1288604736329	607.5960083007814	-742.9949340820314	-193.8362121582032	574.2709350585939	-730.8602905273439	-164.4482116699219	589.7877197265626	-729.1369018554689	-181.2242584228516	492.4358520507814	-743.9467773437501	-127.4640197753907	398.8985290527345	-739.8903198242189	-83.78748321533205	394.2446594238282	-882.7370605468752	-122.7364349365235	245.2243347167969	-773.1887817382815	-217.7550506591797	207.7225494384766	-723.1950683593751	-181.2128143310547	187.6555938720703	-744.4918823242189	-195.302719116211	138.8609008789063	-775.4067993164065	-309.0711364746094	86.34691619873048	-752.5010375976564	-271.9680480957032	77.83300018310548	-828.6921386718752	-357.2344970703126	59.83961105346681	-790.179870605469	-161.288803100586	48.08496475219728	-783.4516601562502	-167.2273254394532	55.34465408325197	-734.4904174804689	-210.3327789306641	36.21701812744141	-690.6268310546876	
1313	6.56	-126.2538375854492	1481.491088867188	-971.9683837890627	-273.0372009277344	1382.466552734375	-1028.801391601563	-224.0790557861329	1411.628662109375	-887.7573852539065	-287.9967651367188	1295.339721679688	-985.386169433594	-315.1352844238282	988.4776611328127	-961.5631103515627	-133.1437377929688	1230.257080078125	-969.3499145507815	-179.6561584472657	1275.610717773438	-1113.400024414063	-231.0540466308594	1149.976806640625	-1243.583740234375	-199.7200927734376	1110.950561523438	-1241.183471679688	-243.3807067871094	1090.800903320313	-1278.8232421875	-247.539535522461	1032.049072265625	-1291.865356445313	-309.1490173339844	1028.493774414063	-1264.229858398438	-155.6909484863282	831.1494140625002	-1204.6748046875	-201.9564514160157	851.3189697265627	-1154.217163085938	-174.6172943115235	799.331237792969	-1117.873168945313	-188.3368682861328	1283.49365234375	-826.820739746094	-228.9539337158204	1181.28515625	-698.8964843750001	-189.7407379150391	1150.797119140625	-695.6938476562501	-224.8133697509766	1127.1943359375	-653.8873901367189	-218.6469421386719	1057.408203125	-625.4357910156251	-284.7760620117188	1033.581665039063	-655.1137084960939	-190.5449676513672	859.0518188476565	-737.2052612304689	-140.0460815429688	844.1027832031252	-696.2838745117189	-164.9808044433594	823.3741455078127	-781.8870849609377	-155.0609130859375	783.0460205078127	-1077.36865234375	-160.3473663330078	803.1984863281252	-813.268005371094	-336.0292053222657	906.9922485351565	-958.6607666015627	-358.7527770996094	880.5393676757815	-982.9813232421877	-355.1201477050782	886.7026367187502	-927.0982055664065	-222.3287353515626	669.9985961914064	-1161.682861328125	-165.4435424804688	609.5904541015626	-1162.571533203125	-125.3223648071289	628.7326049804689	-1145.462524414063	-171.7742462158203	551.2614135742189	-1162.546264648438	-147.7563629150391	407.4102478027345	-1155.137817382813	-116.7750701904297	366.6046447753907	-1010.402038574219	-142.7790985107422	226.3936920166016	-1093.0634765625	-186.0498809814453	207.7263793945313	-1167.212280273438	-168.6661682128907	191.1377410888672	-1128.992431640625	-215.7577362060547	124.3947525024414	-1102.823852539063	-304.0677490234376	85.22032928466798	-1164.174926757813	-286.2668457031251	80.43843078613283	-1078.262939453125	-366.4290466308594	61.02881240844728	-1127.343017578125	-175.6162261962891	49.40783691406251	-1102.592529296875	-164.9333801269532	51.12426757812501	-1150.576904296875	-207.4522399902344	34.99616241455079	-1200.677124023438	-252.2261657714844	607.5014648437501	-744.5516967773439	-196.4333190917969	573.6402587890626	-731.9633178710939	-166.8880462646485	588.9472045898439	-729.5630493164064	-184.4951477050782	491.8196105957032	-745.0238647460939	-127.8787155151367	400.0326232910157	-740.0247192382814	-89.70253753662111	395.1582946777345	-882.720642089844	-123.484619140625	245.8193664550782	-772.7895507812502	-218.2898559570313	208.2205200195313	-723.2426757812501	-182.0365142822266	188.1941375732422	-744.2415161132814	-195.525375366211	139.2662506103516	-775.509704589844	-309.2334899902344	86.19824981689455	-752.2467651367189	-272.3235778808594	77.99266815185548	-828.362243652344	-357.4044189453126	59.62248992919923	-789.852966308594	-161.297607421875	48.22309875488283	-783.3364257812502	-166.9962921142578	55.2091636657715	-734.2638549804689	-210.3143768310547	35.96979141235352	-690.7684326171876	
1314	6.565	-125.8013458251953	1482.3896484375	-971.8657226562502	-272.3589477539063	1383.526123046875	-1028.84375	-223.3014068603516	1412.644775390625	-888.0682373046877	-287.1882324218751	1296.288818359375	-985.559997558594	-315.1915283203126	989.826110839844	-961.6531982421877	-132.7097473144532	1231.753173828125	-969.5734863281252	-179.2709503173828	1276.764526367188	-1113.3193359375	-230.2281188964844	1151.821899414063	-1244.05078125	-199.2164916992188	1112.4033203125	-1241.326904296875	-242.6985168457032	1092.804809570313	-1279.292724609375	-246.4038085937501	1033.9580078125	-1292.649169921875	-309.1391906738282	1030.777587890625	-1264.951171875	-156.6521301269532	832.6714477539065	-1205.892456054688	-202.814193725586	852.7012329101565	-1155.240966796875	-175.8678894042969	800.4692993164065	-1118.714721679688	-187.9449462890625	1284.740356445313	-827.074890136719	-228.2762298583985	1183.162231445313	-698.7169799804689	-189.197738647461	1152.261962890625	-695.5927734375001	-224.1037139892579	1128.983276367188	-653.7054443359376	-218.248519897461	1059.43115234375	-625.3394165039064	-284.5795898437501	1035.621704101563	-654.3605346679689	-190.9426879882813	860.7603149414065	-736.7572021484376	-141.0498046875	845.5385742187502	-695.2002563476564	-165.4153289794922	824.854675292969	-781.498718261719	-156.4566955566407	783.8633422851565	-1078.224731445313	-161.1610412597657	803.124938964844	-813.651306152344	-336.0457153320313	908.6983032226565	-959.1645507812502	-358.6668701171876	882.2204589843752	-983.466979980469	-355.0384216308594	888.2271118164065	-927.539489746094	-224.6240692138672	670.9656372070314	-1161.882080078125	-167.3006896972657	609.8550415039064	-1163.289916992188	-127.0855789184571	628.9192504882814	-1146.958740234375	-173.5906066894532	551.5089721679689	-1162.836547851563	-148.963851928711	408.7556152343751	-1155.85791015625	-120.2925338745117	367.2753906250001	-1011.330322265625	-142.9873657226563	228.5074157714844	-1093.813720703125	-186.6273345947266	208.5612792968751	-1167.673828125	-169.0229797363282	191.5929412841797	-1129.4267578125	-216.0150299072266	125.0427932739258	-1102.906372070313	-304.1103210449219	85.34924316406251	-1164.238647460938	-286.2522583007813	80.67260742187501	-1078.401123046875	-366.3907165527344	61.05935668945314	-1127.379028320313	-175.5921630859375	49.30574417114259	-1102.447509765625	-164.895263671875	51.1428909301758	-1150.590087890625	-207.5216674804688	35.00942993164063	-1200.61083984375	-254.7958374023438	608.2705078125001	-746.2722167968751	-199.2301330566407	574.4169311523439	-732.8250732421876	-169.6456604003907	589.4008789062501	-729.8098144531251	-186.5346832275391	492.4129028320314	-745.8673095703126	-127.8195266723633	401.9297790527345	-740.2369995117189	-94.34326934814455	396.636932373047	-882.5006103515627	-124.5944976806641	246.5598754882813	-772.4085083007815	-219.2071380615235	208.6353149414063	-723.2164306640626	-182.5416564941407	188.4862670898438	-744.0295410156251	-196.0930938720704	139.811508178711	-775.7481079101565	-309.4007568359376	86.1892776489258	-752.0628662109376	-272.3386535644532	78.13671875000001	-828.1147460937502	-357.5238342285157	59.58425521850587	-789.6986083984377	-161.3075256347657	48.2995948791504	-783.3428344726565	-167.0117645263672	55.16999816894533	-734.3069458007814	-210.292709350586	35.91427612304688	-690.7036132812501	
1315	6.57	-125.196273803711	1483.621948242188	-972.0007324218752	-271.8089294433594	1385.092529296875	-1028.756713867188	-222.4208221435547	1414.244750976563	-888.160095214844	-286.6257934570313	1297.383544921875	-985.497009277344	-315.2339477539063	991.4722290039065	-961.6656494140627	-132.5543518066407	1233.16015625	-969.8433227539065	-179.0260162353516	1278.2666015625	-1113.385498046875	-229.4218292236329	1153.670166015625	-1244.488037109375	-198.5814208984376	1114.02783203125	-1241.559814453125	-241.8187561035157	1094.556030273438	-1279.80908203125	-246.5433502197266	1036.214965820313	-1293.211547851563	-309.0426940917969	1033.300415039063	-1265.777587890625	-157.6226348876953	834.247985839844	-1206.88671875	-203.3587341308594	854.114929199219	-1156.27587890625	-176.3899841308594	801.8542480468752	-1119.775146484375	-187.4952392578125	1286.130737304688	-827.231872558594	-227.9239501953126	1184.956176757813	-698.5963745117189	-188.5623474121094	1154.039306640625	-695.5599365234376	-223.1570587158204	1131.046875	-653.4956665039064	-217.7502593994141	1061.445556640625	-625.2608032226564	-284.5240783691407	1037.935668945313	-653.5225830078126	-191.3462677001953	862.4584960937502	-736.1751708984376	-141.6382904052735	847.1356201171877	-694.6246948242189	-165.1977996826172	826.4519653320315	-781.0762939453127	-157.5625	785.2442016601565	-1079.450439453125	-161.3583679199219	804.5242919921877	-813.4177246093752	-336.2559509277344	910.2182617187502	-959.3151855468752	-359.5965576171876	884.2904052734377	-983.534118652344	-355.6994934082032	889.9795532226565	-927.7156982421877	-224.5474090576172	671.8624877929689	-1162.79833984375	-168.591293334961	610.4694824218751	-1164.050903320313	-128.384506225586	629.5767211914064	-1147.984985351563	-175.9746551513672	552.4776000976564	-1163.441284179688	-149.5266265869141	410.3916015625001	-1156.823364257813	-121.0594329833985	369.2883300781251	-1012.192504882813	-144.0574188232422	228.7550811767579	-1093.634155273438	-187.8224487304688	209.4617614746094	-1167.702270507813	-169.8223419189453	192.6165313720704	-1129.58447265625	-216.3526306152344	125.6732940673828	-1102.765625	-304.1399230957032	85.43116760253908	-1164.239501953125	-286.3220214843751	80.8948440551758	-1078.517578125	-366.3917846679688	61.16795349121095	-1127.332275390625	-175.4441223144532	49.65118789672853	-1102.437744140625	-164.7502746582032	51.03207397460939	-1150.65576171875	-207.4496765136719	35.06547546386719	-1200.598876953125	-257.1202697753907	609.6739501953126	-748.1737670898439	-201.7635345458985	575.6960449218751	-733.2571411132814	-172.3850708007813	591.2904052734376	-730.1096801757814	-188.1349029541016	494.4361877441407	-746.1400146484376	-127.6975784301758	404.3097534179689	-740.2625732421876	-97.90615844726565	398.3761596679689	-881.8995361328127	-125.4490966796875	247.4554595947266	-772.4464111328127	-219.815170288086	209.3540191650391	-723.1936645507814	-183.0952301025391	189.5238342285157	-744.0969238281251	-196.6243286132813	140.5658264160157	-775.815124511719	-309.5257263183594	86.23821258544923	-752.0328979492189	-272.4050292968751	78.30348968505861	-828.017272949219	-357.5229187011719	59.63814544677736	-789.658874511719	-161.3035278320313	48.33455657958986	-783.3359375000002	-167.5150451660157	54.92449951171876	-734.1940917968751	-210.2974090576172	35.90381240844727	-690.7206420898439	
